<svg xmlns="http://www.w3.org/2000/svg" viewBox="0 0 512 512"><defs/><path fill="#ff8600" d="M54.572 18.849L44.497 28.924c-50.151 50.151-50.151 131.463 0 181.615l47.784 47.784 82.513-119.373z" data-original="#FF8600"/><path fill="#ff3636" d="M457.428 18.849l10.075 10.075c50.152 50.151 50.152 131.463 0 181.615l-47.784 47.784-82.513-119.373z" data-original="#FF3636"/><path fill="#ffb54c" d="M256 113.959c-65.246 0-125.737 34.134-159.467 89.984l-47.656 78.908s166.852 200.298 167.554 200.662a86.053 86.053 0 0078.879.133c.79-.406 167.809-200.801 167.809-200.801l-47.652-78.902c-33.73-55.85-94.221-89.984-159.467-89.984z" data-original="#FFB54C"/><path fill="#ff8600" d="M256 113.959V493.15a86.009 86.009 0 0039.35-9.524c.777-.399 167.73-200.847 167.73-200.847l-47.613-78.836c-33.73-55.85-94.221-89.984-159.467-89.984z" data-original="#FF8600"/><path fill="#ffe8ca" d="M95.987 282.781H48.92L0 363.782l214.335 118.609c.795.44 1.595.865 2.399 1.278l-6.496-94.241c-4.139-60.05-54.058-106.647-114.251-106.647z" data-original="#FFE8CA"/><path fill="#ffd295" d="M416.012 282.781h47.068L512 363.782 297.665 482.391c-.795.44-1.595.865-2.399 1.278l6.496-94.241c4.139-60.05 54.058-106.647 114.25-106.647z" class="active-path" data-original="#FFD295"/></svg>